<?xml version="1.0" encoding="UTF-8"?>
<svg version="1.1" xmlns="http://www.w3.org/2000/svg" width="129" height="118">
<path d="M0 0 C21.12 0 42.24 0 64 0 C64.33 16.17 64.66 32.34 65 49 C84.305 49.495 84.305 49.495 104 50 C104 69.14 104 88.28 104 108 C69.68 108 35.36 108 0 108 C0 72.36 0 36.72 0 0 Z M8 9 C7.90479094 11.83040672 7.87446369 14.63634993 7.88647461 17.46704102 C7.88632858 18.35476196 7.88618256 19.24248291 7.8860321 20.15710449 C7.88673157 23.10606284 7.89452552 26.05495887 7.90234375 29.00390625 C7.90420781 31.04271917 7.90563177 33.08153254 7.90663147 35.12034607 C7.91045759 40.49784574 7.92028868 45.87531858 7.93133545 51.25280762 C7.94334166 57.69883418 7.94795136 64.1448697 7.95378876 70.59090424 C7.96350038 80.39395484 7.98265628 90.19694653 8 100 C37.04 100 66.08 100 96 100 C96 86.47 96 72.94 96 59 C94.8000901 57.57174014 94.8000901 57.57174014 91.30639648 57.88647461 C89.66128708 57.88663376 88.01617269 57.89233012 86.37109375 57.90234375 C85.50686295 57.9037587 84.64263214 57.90517365 83.75221252 57.90663147 C80.98060708 57.91224761 78.2090812 57.92480281 75.4375 57.9375 C73.5631522 57.94251292 71.68880315 57.94707619 69.81445312 57.95117188 C65.20960456 57.96222228 60.60481579 57.9794977 56 58 C56.00222061 57.38834488 56.00444122 56.77668976 56.00672913 56.14649963 C56.02878122 49.80429669 56.04390627 43.46210456 56.05493164 37.11987305 C56.05997341 34.75007688 56.06680665 32.38028385 56.07543945 30.01049805 C56.0875119 26.61245961 56.09322971 23.21446215 56.09765625 19.81640625 C56.10281754 18.74975235 56.10797882 17.68309845 56.11329651 16.5841217 C56.11337204 15.60318039 56.11344757 14.62223907 56.11352539 13.61157227 C56.115746 12.74331314 56.11796661 11.87505402 56.12025452 10.98048401 C56.21954667 8.99856319 56.21954667 8.99856319 55 8 C53.56259647 7.90186013 52.12043673 7.8720172 50.6796875 7.87060547 C49.76203613 7.86745331 48.84438477 7.86430115 47.89892578 7.86105347 C46.40208252 7.86408981 46.40208252 7.86408981 44.875 7.8671875 C43.34915283 7.86575241 43.34915283 7.86575241 41.79248047 7.86428833 C39.63704364 7.86360639 37.48160478 7.86546165 35.32617188 7.86962891 C32.01427629 7.87497695 28.70251633 7.86968437 25.390625 7.86328125 C23.30208303 7.86394203 21.21354115 7.86522319 19.125 7.8671875 C18.12710449 7.86516327 17.12920898 7.86313904 16.10107422 7.86105347 C15.18342285 7.86420563 14.26577148 7.86735779 13.3203125 7.87060547 C12.50836426 7.87140106 11.69641602 7.87219666 10.85986328 7.87301636 C8.98454247 7.79635811 8.98454247 7.79635811 8 9 Z " fill="#F7F7F7" transform="translate(12,4)"/>
<path d="M0 0 C21.12 0 42.24 0 64 0 C64.33 16.17 64.66 32.34 65 49 C84.305 49.495 84.305 49.495 104 50 C104 69.14 104 88.28 104 108 C69.68 108 35.36 108 0 108 C0 72.36 0 36.72 0 0 Z M2 2 C2 36.32 2 70.64 2 106 C35 106 68 106 102 106 C102 88.18 102 70.36 102 52 C88.8 52 75.6 52 62 52 C62 35.5 62 19 62 2 C42.2 2 22.4 2 2 2 Z " fill="#D0D0D0" transform="translate(12,4)"/>
<path d="M0 0 C17.16 0 34.32 0 52 0 C52 16.5 52 33 52 50 C65.2 50 78.4 50 92 50 C92 65.18 92 80.36 92 96 C61.64 96 31.28 96 0 96 C0 64.32 0 32.64 0 0 Z M2 3 C1.90479094 5.83040672 1.87446369 8.63634993 1.88647461 11.46704102 C1.88632858 12.35476196 1.88618256 13.24248291 1.8860321 14.15710449 C1.88673157 17.10606284 1.89452552 20.05495887 1.90234375 23.00390625 C1.90420781 25.04271917 1.90563177 27.08153254 1.90663147 29.12034607 C1.91045759 34.49784574 1.92028868 39.87531858 1.93133545 45.25280762 C1.94334166 51.69883418 1.94795136 58.1448697 1.95378876 64.59090424 C1.96350038 74.39395484 1.98265628 84.19694653 2 94 C31.04 94 60.08 94 90 94 C90 80.47 90 66.94 90 53 C88.8000901 51.57174014 88.8000901 51.57174014 85.30639648 51.88647461 C83.66128708 51.88663376 82.01617269 51.89233012 80.37109375 51.90234375 C79.50686295 51.9037587 78.64263214 51.90517365 77.75221252 51.90663147 C74.98060708 51.91224761 72.2090812 51.92480281 69.4375 51.9375 C67.5631522 51.94251292 65.68880315 51.94707619 63.81445312 51.95117188 C59.20960456 51.96222228 54.60481579 51.9794977 50 52 C50.00222061 51.38834488 50.00444122 50.77668976 50.00672913 50.14649963 C50.02878122 43.80429669 50.04390627 37.46210456 50.05493164 31.11987305 C50.05997341 28.75007688 50.06680665 26.38028385 50.07543945 24.01049805 C50.0875119 20.61245961 50.09322971 17.21446215 50.09765625 13.81640625 C50.10281754 12.74975235 50.10797882 11.68309845 50.11329651 10.5841217 C50.11337204 9.60318039 50.11344757 8.62223907 50.11352539 7.61157227 C50.115746 6.74331314 50.11796661 5.87505402 50.12025452 4.98048401 C50.21954667 2.99856319 50.21954667 2.99856319 49 2 C47.56259647 1.90186013 46.12043673 1.8720172 44.6796875 1.87060547 C43.76203613 1.86745331 42.84438477 1.86430115 41.89892578 1.86105347 C40.40208252 1.86408981 40.40208252 1.86408981 38.875 1.8671875 C37.34915283 1.86575241 37.34915283 1.86575241 35.79248047 1.86428833 C33.63704364 1.86360639 31.48160478 1.86546165 29.32617188 1.86962891 C26.01427629 1.87497695 22.70251633 1.86968437 19.390625 1.86328125 C17.30208303 1.86394203 15.21354115 1.86522319 13.125 1.8671875 C12.12710449 1.86516327 11.12920898 1.86313904 10.10107422 1.86105347 C9.18342285 1.86420563 8.26577148 1.86735779 7.3203125 1.87060547 C6.50836426 1.87140106 5.69641602 1.87219666 4.85986328 1.87301636 C2.98454247 1.79635811 2.98454247 1.79635811 2 3 Z " fill="#D1D1D1" transform="translate(18,10)"/>
</svg>
