<?xml version="1.0" encoding="UTF-8"?>
<svg version="1.1" xmlns="http://www.w3.org/2000/svg" width="129" height="118">
<path d="M0 0 C34.32 0 68.64 0 104 0 C104 35.64 104 71.28 104 108 C82.88 108 61.76 108 40 108 C39.67 91.83 39.34 75.66 39 59 C19.695 58.505 19.695 58.505 0 58 C0 38.86 0 19.72 0 0 Z M8 8 C8 21.53 8 35.06 8 49 C9.1999099 50.42825986 9.1999099 50.42825986 12.69360352 50.11352539 C14.33871292 50.11336624 15.98382731 50.10766988 17.62890625 50.09765625 C18.49313705 50.0962413 19.35736786 50.09482635 20.24778748 50.09336853 C23.01939292 50.08775239 25.7909188 50.07519719 28.5625 50.0625 C30.4368478 50.05748708 32.31119685 50.05292381 34.18554688 50.04882812 C38.79039544 50.03777772 43.39518421 50.0205023 48 50 C47.99777939 50.61165512 47.99555878 51.22331024 47.99327087 51.85350037 C47.97121878 58.19570331 47.95609373 64.53789544 47.94506836 70.88012695 C47.94002659 73.24992312 47.93319335 75.61971615 47.92456055 77.98950195 C47.9124881 81.38754039 47.90677029 84.78553785 47.90234375 88.18359375 C47.89718246 89.25024765 47.89202118 90.31690155 47.88670349 91.4158783 C47.88662796 92.39681961 47.88655243 93.37776093 47.88647461 94.38842773 C47.884254 95.25668686 47.88203339 96.12494598 47.87974548 97.01951599 C47.78045333 99.00143681 47.78045333 99.00143681 49 100 C50.43740353 100.09813987 51.87956327 100.1279828 53.3203125 100.12939453 C54.23796387 100.13254669 55.15561523 100.13569885 56.10107422 100.13894653 C57.09896973 100.1369223 58.09686523 100.13489807 59.125 100.1328125 C60.65084717 100.13424759 60.65084717 100.13424759 62.20751953 100.13571167 C64.36295636 100.13639361 66.51839522 100.13453835 68.67382812 100.13037109 C71.98572371 100.12502305 75.29748367 100.13031563 78.609375 100.13671875 C80.69791697 100.13605797 82.78645885 100.13477681 84.875 100.1328125 C86.37184326 100.13584885 86.37184326 100.13584885 87.89892578 100.13894653 C88.81657715 100.13579437 89.73422852 100.13264221 90.6796875 100.12939453 C91.49163574 100.12859894 92.30358398 100.12780334 93.14013672 100.12698364 C95.01545753 100.20364189 95.01545753 100.20364189 96 99 C96.09520906 96.16959328 96.12553631 93.36365007 96.11352539 90.53295898 C96.11367142 89.64523804 96.11381744 88.75751709 96.1139679 87.84289551 C96.11326843 84.89393716 96.10547448 81.94504113 96.09765625 78.99609375 C96.09579219 76.95728083 96.09436823 74.91846746 96.09336853 72.87965393 C96.08954241 67.50215426 96.07971132 62.12468142 96.06866455 56.74719238 C96.05665834 50.30116582 96.05204864 43.8551303 96.04621124 37.40909576 C96.03649962 27.60604516 96.01734372 17.80305347 96 8 C66.96 8 37.92 8 8 8 Z " fill="#F7F7F7" transform="translate(13,6)"/>
<path d="M0 0 C34.32 0 68.64 0 104 0 C104 35.64 104 71.28 104 108 C82.88 108 61.76 108 40 108 C39.67 91.83 39.34 75.66 39 59 C19.695 58.505 19.695 58.505 0 58 C0 38.86 0 19.72 0 0 Z M2 2 C2 19.82 2 37.64 2 56 C15.2 56 28.4 56 42 56 C42 72.5 42 89 42 106 C61.8 106 81.6 106 102 106 C102 71.68 102 37.36 102 2 C69 2 36 2 2 2 Z " fill="#D0D0D0" transform="translate(13,6)"/>
<path d="M0 0 C30.36 0 60.72 0 92 0 C92 31.68 92 63.36 92 96 C74.84 96 57.68 96 40 96 C40 79.5 40 63 40 46 C26.8 46 13.6 46 0 46 C0 30.82 0 15.64 0 0 Z M2 2 C2 15.53 2 29.06 2 43 C3.1999099 44.42825986 3.1999099 44.42825986 6.69360352 44.11352539 C8.33871292 44.11336624 9.98382731 44.10766988 11.62890625 44.09765625 C12.49313705 44.0962413 13.35736786 44.09482635 14.24778748 44.09336853 C17.01939292 44.08775239 19.7909188 44.07519719 22.5625 44.0625 C24.4368478 44.05748708 26.31119685 44.05292381 28.18554688 44.04882812 C32.79039544 44.03777772 37.39518421 44.0205023 42 44 C41.99777939 44.61165512 41.99555878 45.22331024 41.99327087 45.85350037 C41.97121878 52.19570331 41.95609373 58.53789544 41.94506836 64.88012695 C41.94002659 67.24992312 41.93319335 69.61971615 41.92456055 71.98950195 C41.9124881 75.38754039 41.90677029 78.78553785 41.90234375 82.18359375 C41.89718246 83.25024765 41.89202118 84.31690155 41.88670349 85.4158783 C41.88662796 86.39681961 41.88655243 87.37776093 41.88647461 88.38842773 C41.884254 89.25668686 41.88203339 90.12494598 41.87974548 91.01951599 C41.78045333 93.00143681 41.78045333 93.00143681 43 94 C44.43740353 94.09813987 45.87956327 94.1279828 47.3203125 94.12939453 C48.23796387 94.13254669 49.15561523 94.13569885 50.10107422 94.13894653 C51.09896973 94.1369223 52.09686523 94.13489807 53.125 94.1328125 C54.65084717 94.13424759 54.65084717 94.13424759 56.20751953 94.13571167 C58.36295636 94.13639361 60.51839522 94.13453835 62.67382812 94.13037109 C65.98572371 94.12502305 69.29748367 94.13031563 72.609375 94.13671875 C74.69791697 94.13605797 76.78645885 94.13477681 78.875 94.1328125 C80.37184326 94.13584885 80.37184326 94.13584885 81.89892578 94.13894653 C82.81657715 94.13579437 83.73422852 94.13264221 84.6796875 94.12939453 C85.49163574 94.12859894 86.30358398 94.12780334 87.14013672 94.12698364 C89.01545753 94.20364189 89.01545753 94.20364189 90 93 C90.09520906 90.16959328 90.12553631 87.36365007 90.11352539 84.53295898 C90.11367142 83.64523804 90.11381744 82.75751709 90.1139679 81.84289551 C90.11326843 78.89393716 90.10547448 75.94504113 90.09765625 72.99609375 C90.09579219 70.95728083 90.09436823 68.91846746 90.09336853 66.87965393 C90.08954241 61.50215426 90.07971132 56.12468142 90.06866455 50.74719238 C90.05665834 44.30116582 90.05204864 37.8551303 90.04621124 31.40909576 C90.03649962 21.60604516 90.01734372 11.80305347 90 2 C60.96 2 31.92 2 2 2 Z " fill="#D1D1D1" transform="translate(19,12)"/>
</svg>
