<?xml version="1.0" encoding="UTF-8"?>
<svg version="1.1" xmlns="http://www.w3.org/2000/svg" width="118" height="129">
<path d="M0 0 C35.64 0 71.28 0 108 0 C108 21.12 108 42.24 108 64 C91.83 64.33 75.66 64.66 59 65 C58.67 77.87 58.34 90.74 58 104 C38.86 104 19.72 104 0 104 C0 69.68 0 35.36 0 0 Z M8 8 C8 37.04 8 66.08 8 96 C21.53 96 35.06 96 49 96 C50.42825986 94.8000901 50.42825986 94.8000901 50.11352539 91.30639648 C50.11336624 89.66128708 50.10766988 88.01617269 50.09765625 86.37109375 C50.0962413 85.50686295 50.09482635 84.64263214 50.09336853 83.75221252 C50.08775239 80.98060708 50.07519719 78.2090812 50.0625 75.4375 C50.05748708 73.5631522 50.05292381 71.68880315 50.04882812 69.81445312 C50.03777772 65.20960456 50.0205023 60.60481579 50 56 C50.91748268 56.00333092 50.91748268 56.00333092 51.85350037 56.00672913 C58.19570331 56.02878122 64.53789544 56.04390627 70.88012695 56.05493164 C73.24992312 56.05997341 75.61971615 56.06680665 77.98950195 56.07543945 C81.38754039 56.0875119 84.78553785 56.09322971 88.18359375 56.09765625 C89.25024765 56.10281754 90.31690155 56.10797882 91.4158783 56.11329651 C92.39681961 56.11337204 93.37776093 56.11344757 94.38842773 56.11352539 C95.25668686 56.115746 96.12494598 56.11796661 97.01951599 56.12025452 C99.00143681 56.21954667 99.00143681 56.21954667 100 55 C100.09813987 53.56259647 100.1279828 52.12043673 100.12939453 50.6796875 C100.13412277 49.30321045 100.13412277 49.30321045 100.13894653 47.89892578 C100.1369223 46.90103027 100.13489807 45.90313477 100.1328125 44.875 C100.13424759 43.34915283 100.13424759 43.34915283 100.13571167 41.79248047 C100.13639361 39.63704364 100.13453835 37.48160478 100.13037109 35.32617188 C100.12502305 32.01427629 100.13031563 28.70251633 100.13671875 25.390625 C100.13605797 23.30208303 100.13477681 21.21354115 100.1328125 19.125 C100.13584885 17.62815674 100.13584885 17.62815674 100.13894653 16.10107422 C100.13579437 15.18342285 100.13264221 14.26577148 100.12939453 13.3203125 C100.12859894 12.50836426 100.12780334 11.69641602 100.12698364 10.85986328 C100.20364189 8.98454247 100.20364189 8.98454247 99 8 C96.16959328 7.90479094 93.36365007 7.87446369 90.53295898 7.88647461 C89.64523804 7.88632858 88.75751709 7.88618256 87.84289551 7.8860321 C84.89393716 7.88673157 81.94504113 7.89452552 78.99609375 7.90234375 C76.95728083 7.90420781 74.91846746 7.90563177 72.87965393 7.90663147 C67.50215426 7.91045759 62.12468142 7.92028868 56.74719238 7.93133545 C50.30116582 7.94334166 43.8551303 7.94795136 37.40909576 7.95378876 C27.60604516 7.96350038 17.80305347 7.98265628 8 8 Z " fill="#F7F7F7" transform="translate(6,12)"/>
<path d="M0 0 C35.64 0 71.28 0 108 0 C108 21.12 108 42.24 108 64 C91.83 64.33 75.66 64.66 59 65 C58.67 77.87 58.34 90.74 58 104 C38.86 104 19.72 104 0 104 C0 69.68 0 35.36 0 0 Z M2 2 C2 35 2 68 2 102 C19.82 102 37.64 102 56 102 C56 88.8 56 75.6 56 62 C72.5 62 89 62 106 62 C106 42.2 106 22.4 106 2 C71.68 2 37.36 2 2 2 Z " fill="#D0D0D0" transform="translate(6,12)"/>
<path d="M0 0 C31.68 0 63.36 0 96 0 C96 17.16 96 34.32 96 52 C79.5 52 63 52 46 52 C46 65.2 46 78.4 46 92 C30.82 92 15.64 92 0 92 C0 61.64 0 31.28 0 0 Z M2 2 C2 31.04 2 60.08 2 90 C15.53 90 29.06 90 43 90 C44.42825986 88.8000901 44.42825986 88.8000901 44.11352539 85.30639648 C44.11336624 83.66128708 44.10766988 82.01617269 44.09765625 80.37109375 C44.0962413 79.50686295 44.09482635 78.64263214 44.09336853 77.75221252 C44.08775239 74.98060708 44.07519719 72.2090812 44.0625 69.4375 C44.05748708 67.5631522 44.05292381 65.68880315 44.04882812 63.81445312 C44.03777772 59.20960456 44.0205023 54.60481579 44 50 C44.91748268 50.00333092 44.91748268 50.00333092 45.85350037 50.00672913 C52.19570331 50.02878122 58.53789544 50.04390627 64.88012695 50.05493164 C67.24992312 50.05997341 69.61971615 50.06680665 71.98950195 50.07543945 C75.38754039 50.0875119 78.78553785 50.09322971 82.18359375 50.09765625 C83.25024765 50.10281754 84.31690155 50.10797882 85.4158783 50.11329651 C86.39681961 50.11337204 87.37776093 50.11344757 88.38842773 50.11352539 C89.25668686 50.115746 90.12494598 50.11796661 91.01951599 50.12025452 C93.00143681 50.21954667 93.00143681 50.21954667 94 49 C94.09813987 47.56259647 94.1279828 46.12043673 94.12939453 44.6796875 C94.13412277 43.30321045 94.13412277 43.30321045 94.13894653 41.89892578 C94.1369223 40.90103027 94.13489807 39.90313477 94.1328125 38.875 C94.13424759 37.34915283 94.13424759 37.34915283 94.13571167 35.79248047 C94.13639361 33.63704364 94.13453835 31.48160478 94.13037109 29.32617188 C94.12502305 26.01427629 94.13031563 22.70251633 94.13671875 19.390625 C94.13605797 17.30208303 94.13477681 15.21354115 94.1328125 13.125 C94.13584885 11.62815674 94.13584885 11.62815674 94.13894653 10.10107422 C94.13579437 9.18342285 94.13264221 8.26577148 94.12939453 7.3203125 C94.12859894 6.50836426 94.12780334 5.69641602 94.12698364 4.85986328 C94.20364189 2.98454247 94.20364189 2.98454247 93 2 C90.16959328 1.90479094 87.36365007 1.87446369 84.53295898 1.88647461 C83.64523804 1.88632858 82.75751709 1.88618256 81.84289551 1.8860321 C78.89393716 1.88673157 75.94504113 1.89452552 72.99609375 1.90234375 C70.95728083 1.90420781 68.91846746 1.90563177 66.87965393 1.90663147 C61.50215426 1.91045759 56.12468142 1.92028868 50.74719238 1.93133545 C44.30116582 1.94334166 37.8551303 1.94795136 31.40909576 1.95378876 C21.60604516 1.96350038 11.80305347 1.98265628 2 2 Z " fill="#D1D1D1" transform="translate(12,18)"/>
</svg>
