<?xml version="1.0" encoding="UTF-8"?>
<svg version="1.1" xmlns="http://www.w3.org/2000/svg" width="129" height="118">
<path d="M0 0 C19.14 0 38.28 0 58 0 C58 34.32 58 68.64 58 104 C22.36 104 -13.28 104 -50 104 C-50 82.88 -50 61.76 -50 40 C-33.5 40 -17 40 0 40 C0 26.8 0 13.6 0 0 Z M9 9 C8.67 21.87 8.34 34.74 8 48 C-8.17 48.33 -24.34 48.66 -41 49 C-41 64.18 -41 79.36 -41 95 C-11.3 95 18.4 95 49 95 C49 66.62 49 38.24 49 9 C35.8 9 22.6 9 9 9 Z " fill="#F7F7F7" transform="translate(60,4)"/>
<path d="M0 0 C19.14 0 38.28 0 58 0 C58 34.32 58 68.64 58 104 C22.36 104 -13.28 104 -50 104 C-50 82.88 -50 61.76 -50 40 C-33.5 40 -17 40 0 40 C0 26.8 0 13.6 0 0 Z M2 2 C2 15.2 2 28.4 2 42 C-14.5 42 -31 42 -48 42 C-48 61.8 -48 81.6 -48 102 C-13.68 102 20.64 102 56 102 C56 69 56 36 56 2 C38.18 2 20.36 2 2 2 Z " fill="#D0D0D0" transform="translate(60,4)"/>
<path d="M0 0 C15.18 0 30.36 0 46 0 C46 30.36 46 60.72 46 92 C14.32 92 -17.36 92 -50 92 C-50 75.5 -50 59 -50 42 C-49.01 41.505 -49.01 41.505 -48 41 C-48 57.17 -48 73.34 -48 90 C-17.64 90 12.72 90 44 90 C44 60.96 44 31.92 44 2 C30.14 2 16.28 2 2 2 C2 14.87 2 27.74 2 41 C1.34 41 0.68 41 0 41 C0 27.47 0 13.94 0 0 Z " fill="#D0D0D0" transform="translate(66,10)"/>
<path d="M0 0 C13.86 0 27.72 0 42 0 C42 29.04 42 58.08 42 88 C11.64 88 -18.72 88 -50 88 C-50.4375 64.125 -50.4375 64.125 -50.56811523 56.58642578 C-50.60622794 54.62271394 -50.64469619 52.65900895 -50.68359375 50.6953125 C-50.7083075 49.15605103 -50.7083075 49.15605103 -50.73352051 47.58569336 C-50.75370239 46.61140381 -50.77388428 45.63711426 -50.79467773 44.63330078 C-50.81022202 43.78502716 -50.8257663 42.93675354 -50.84178162 42.06277466 C-50.87429958 39.93681695 -50.87429958 39.93681695 -52 38 C-44.91586059 37.97470729 -37.83173277 37.95715739 -30.74755859 37.94506836 C-28.33609583 37.94003026 -25.92463614 37.93319966 -23.51318359 37.92456055 C-20.05305221 37.91247213 -16.5929611 37.90676656 -13.1328125 37.90234375 C-12.04944611 37.89718246 -10.96607971 37.89202118 -9.84988403 37.88670349 C-8.8489975 37.88662796 -7.84811096 37.88655243 -6.81689453 37.88647461 C-5.93309113 37.884254 -5.04928772 37.88203339 -4.13870239 37.87974548 C-2 38 -2 38 0 39 C0 26.13 0 13.26 0 0 Z M1 1 C0.67 13.87 0.34 26.74 0 40 C-16.17 40.33 -32.34 40.66 -49 41 C-49 56.18 -49 71.36 -49 87 C-19.3 87 10.4 87 41 87 C41 58.62 41 30.24 41 1 C27.8 1 14.6 1 1 1 Z " fill="#E7E7E7" transform="translate(68,12)"/>
</svg>
