<?xml version="1.0" encoding="UTF-8"?>
<svg version="1.1" xmlns="http://www.w3.org/2000/svg" width="129" height="118">
<path d="M0 0 C34.32 0 68.64 0 104 0 C104 31.68 104 63.36 104 96 C69.68 96 35.36 96 0 96 C0 64.32 0 32.64 0 0 Z M8 9 C7.90499295 11.46448128 7.87443322 13.9007083 7.88647461 16.36547852 C7.88635407 17.14866172 7.88623354 17.93184492 7.88610935 18.73876095 C7.88685848 21.28550448 7.89448669 23.83217573 7.90234375 26.37890625 C7.90381317 27.94657353 7.90483388 29.51424131 7.90539551 31.08190918 C7.91064839 36.90878025 7.92460948 42.73564082 7.9375 48.5625 C7.958125 61.576875 7.97875 74.59125 8 88 C37.04 88 66.08 88 96 88 C96.020625 74.985625 96.04125 61.97125 96.0625 48.5625 C96.071604 44.44724854 96.08070801 40.33199707 96.09008789 36.09204102 C96.09343151 32.41570324 96.09343151 32.41570324 96.09544373 28.73936462 C96.09698325 27.09690582 96.10050835 25.45444817 96.10557556 23.81199646 C96.11285326 21.32980371 96.11390741 18.84768027 96.11352539 16.36547852 C96.11892255 15.26072473 96.11892255 15.26072473 96.12442875 14.13365269 C96.4136758 10.78220208 96.4136758 10.78220208 95 8 C92.32749933 7.89954947 89.68081419 7.86383351 87.0078125 7.87060547 C86.1704657 7.86885315 85.3331189 7.86710083 84.47039795 7.86529541 C81.68857786 7.86087599 78.90682079 7.8638152 76.125 7.8671875 C74.20068347 7.86651449 72.27636702 7.86554448 70.35205078 7.86428833 C66.31346835 7.86281123 62.274908 7.86496629 58.23632812 7.86962891 C53.04731489 7.8753262 47.85835337 7.87204726 42.66934204 7.86605644 C38.6940878 7.86245114 34.71884591 7.86358927 30.74359131 7.86618423 C28.8297322 7.86685359 26.91587198 7.86602478 25.00201416 7.86370468 C22.3320415 7.86117867 19.6621538 7.86501802 16.9921875 7.87060547 C16.19319031 7.86858124 15.39419312 7.86655701 14.57098389 7.86447144 C10.98935796 7.54382991 10.98935796 7.54382991 8 9 Z " fill="#F8F8F8" transform="translate(10,9)"/>
<path d="M0 0 C34.32 0 68.64 0 104 0 C104 31.68 104 63.36 104 96 C69.68 96 35.36 96 0 96 C0 64.32 0 32.64 0 0 Z M2 2 C2 32.36 2 62.72 2 94 C35 94 68 94 102 94 C102 63.64 102 33.28 102 2 C69 2 36 2 2 2 Z " fill="#D8D8D8" transform="translate(10,9)"/>
<path d="M0 0 C30.36 0 60.72 0 92 0 C92 27.72 92 55.44 92 84 C61.64 84 31.28 84 0 84 C0 56.28 0 28.56 0 0 Z M2 3 C1.90499295 5.46448128 1.87443322 7.9007083 1.88647461 10.36547852 C1.88635407 11.14866172 1.88623354 11.93184492 1.88610935 12.73876095 C1.88685848 15.28550448 1.89448669 17.83217573 1.90234375 20.37890625 C1.90381317 21.94657353 1.90483388 23.51424131 1.90539551 25.08190918 C1.91064839 30.90878025 1.92460948 36.73564082 1.9375 42.5625 C1.958125 55.576875 1.97875 68.59125 2 82 C31.04 82 60.08 82 90 82 C90.020625 68.985625 90.04125 55.97125 90.0625 42.5625 C90.071604 38.44724854 90.08070801 34.33199707 90.09008789 30.09204102 C90.09343151 26.41570324 90.09343151 26.41570324 90.09544373 22.73936462 C90.09698325 21.09690582 90.10050835 19.45444817 90.10557556 17.81199646 C90.11285326 15.32980371 90.11390741 12.84768027 90.11352539 10.36547852 C90.11892255 9.26072473 90.11892255 9.26072473 90.12442875 8.13365269 C90.4136758 4.78220208 90.4136758 4.78220208 89 2 C86.32749933 1.89954947 83.68081419 1.86383351 81.0078125 1.87060547 C80.1704657 1.86885315 79.3331189 1.86710083 78.47039795 1.86529541 C75.68857786 1.86087599 72.90682079 1.8638152 70.125 1.8671875 C68.20068347 1.86651449 66.27636702 1.86554448 64.35205078 1.86428833 C60.31346835 1.86281123 56.274908 1.86496629 52.23632812 1.86962891 C47.04731489 1.8753262 41.85835337 1.87204726 36.66934204 1.86605644 C32.6940878 1.86245114 28.71884591 1.86358927 24.74359131 1.86618423 C22.8297322 1.86685359 20.91587198 1.86602478 19.00201416 1.86370468 C16.3320415 1.86117867 13.6621538 1.86501802 10.9921875 1.87060547 C10.19319031 1.86858124 9.39419312 1.86655701 8.57098389 1.86447144 C4.98935796 1.54382991 4.98935796 1.54382991 2 3 Z " fill="#D8D8D8" transform="translate(16,15)"/>
</svg>
