<?xml version="1.0" encoding="UTF-8"?>
<svg version="1.1" xmlns="http://www.w3.org/2000/svg" width="119" height="127">
<path d="M0 0 C39.27 0 78.54 0 119 0 C119 41.91 119 83.82 119 127 C79.73 127 40.46 127 0 127 C0 85.09 0 43.18 0 0 Z " fill="#F6F6F6" transform="translate(0,0)"/>
<path d="M0 0 C39.27 0 78.54 0 119 0 C119 41.91 119 83.82 119 127 C79.73 127 40.46 127 0 127 C0 85.09 0 43.18 0 0 Z M7 6 C7 41.64 7 77.28 7 114 C41.32 114 75.64 114 111 114 C111 94.86 111 75.72 111 56 C97.8 56 84.6 56 71 56 C71 39.5 71 23 71 6 C49.88 6 28.76 6 7 6 Z " fill="#FDFDFD" transform="translate(0,0)"/>
<path d="M0 0 C21.12 0 42.24 0 64 0 C64 16.5 64 33 64 50 C77.2 50 90.4 50 104 50 C104 69.14 104 88.28 104 108 C69.68 108 35.36 108 0 108 C0 72.36 0 36.72 0 0 Z M6 6 C6 37.68 6 69.36 6 102 C36.36 102 66.72 102 98 102 C98 86.82 98 71.64 98 56 C84.8 56 71.6 56 58 56 C58 39.5 58 23 58 6 C40.84 6 23.68 6 6 6 Z " fill="#F7F7F7" transform="translate(7,6)"/>
<path d="M0 0 C21.12 0 42.24 0 64 0 C64 16.5 64 33 64 50 C77.2 50 90.4 50 104 50 C104 69.14 104 88.28 104 108 C69.68 108 35.36 108 0 108 C0 72.36 0 36.72 0 0 Z M2 2 C2 36.32 2 70.64 2 106 C35 106 68 106 102 106 C102 88.18 102 70.36 102 52 C88.8 52 75.6 52 62 52 C62 35.5 62 19 62 2 C42.2 2 22.4 2 2 2 Z " fill="#D0D0D0" transform="translate(7,6)"/>
<path d="M0 0 C17.16 0 34.32 0 52 0 C52 16.5 52 33 52 50 C65.2 50 78.4 50 92 50 C92 65.18 92 80.36 92 96 C61.64 96 31.28 96 0 96 C0 64.32 0 32.64 0 0 Z M2 2 C2 32.36 2 62.72 2 94 C31.04 94 60.08 94 90 94 C90 80.14 90 66.28 90 52 C76.8 52 63.6 52 50 52 C50 35.5 50 19 50 2 C34.16 2 18.32 2 2 2 Z " fill="#D1D1D1" transform="translate(13,12)"/>
</svg>
