<?xml version="1.0" encoding="UTF-8"?>
<svg version="1.1" xmlns="http://www.w3.org/2000/svg" width="512" height="512">
<path d="M0 0 C1.78372327 -0.00461538 3.56744274 -0.01097256 5.35115433 -0.01890898 C10.22645933 -0.03553784 15.10144932 -0.02738533 19.97675514 -0.0149641 C25.24473786 -0.00588948 30.51266756 -0.01989529 35.78063965 -0.03088379 C46.09024447 -0.04864785 56.39973265 -0.04483842 66.709342 -0.03323323 C75.08996982 -0.02419087 83.47056499 -0.02297838 91.85119629 -0.02732849 C93.04506179 -0.02794142 94.23892729 -0.02855436 95.46897054 -0.02918586 C97.89446736 -0.03046479 100.31996418 -0.03176165 102.74546099 -0.03307623 C125.47653081 -0.04447584 148.20753606 -0.03137801 170.93859529 -0.00987476 C190.43272868 0.00799564 209.92676677 0.00489136 229.42089844 -0.0135498 C252.07196496 -0.03496742 274.72297491 -0.04337726 297.37405014 -0.03110075 C299.79050445 -0.02982659 302.20695876 -0.0285691 304.62341309 -0.02732849 C306.40671394 -0.02640284 306.40671394 -0.02640284 308.22604108 -0.02545848 C316.59427072 -0.02200827 324.96246441 -0.02782687 333.33068848 -0.0372467 C343.53210347 -0.04847794 353.73339539 -0.0454029 363.93479633 -0.02412373 C369.13731979 -0.01362855 374.33963821 -0.00946544 379.54216003 -0.02272034 C384.30914181 -0.03468168 389.07572942 -0.02802009 393.84267569 -0.00681013 C395.56256902 -0.0023599 397.28249598 -0.00457461 399.0023675 -0.01431328 C414.90686655 -0.09742907 428.56708743 3.06015472 440.48730469 14.25793457 C452.47245286 27.01631811 454.84075378 41.44808862 454.73851013 58.28408813 C454.74240836 60.06923613 454.74805297 61.854381 454.75528103 63.63951862 C454.76997836 68.51869188 454.75988859 73.39754052 454.74554431 78.27670312 C454.73440595 83.54873219 454.74638652 88.82071679 454.75538635 94.09274292 C454.76930073 104.40970321 454.76177619 114.72654089 454.74671077 125.04349531 C454.72983008 137.06204165 454.73306348 149.08055761 454.73680485 161.09911214 C454.74268 182.54416754 454.72852469 203.98916418 454.70385742 225.4342041 C454.67993169 246.23696088 454.67285595 267.03963916 454.68334961 287.84240723 C454.69476143 310.50590273 454.69668606 333.16936195 454.68225151 355.83285701 C454.6807257 358.24983716 454.67920534 360.6668173 454.67769051 363.08379745 C454.67693269 364.27294612 454.67617488 365.46209478 454.6753941 366.68727825 C454.67065379 375.06245048 454.67250088 383.43760649 454.67675591 391.81277847 C454.6816848 402.01935902 454.67568801 412.2258654 454.65586161 422.43242897 C454.64599707 427.6387219 454.64087555 432.84490193 454.64875412 438.05120087 C454.65582186 442.81925421 454.64898066 447.58707997 454.63115049 452.35510336 C454.62711315 454.07765249 454.62809385 455.80022243 454.63466936 457.52276374 C454.69371112 474.44063299 451.43125227 486.62709376 439.62402344 499.21496582 C430.6422272 507.84395828 419.4372182 512.6251443 407.03192902 512.64215565 C406.30153136 512.64450788 405.57113371 512.64686011 404.8186028 512.64928362 C402.35793552 512.65596912 399.89732111 512.65551553 397.43664551 512.65510559 C395.65983102 512.6584045 393.88301729 512.66213013 392.10620451 512.66624707 C387.21292826 512.67627222 382.31966427 512.6799847 377.4263792 512.68263638 C372.15281846 512.68653794 366.87926743 512.69611644 361.60571289 512.70484924 C348.8641644 512.72461859 336.12261511 512.73468079 323.38105512 512.74357703 C317.38151323 512.74795946 311.38197222 512.75332641 305.38243103 512.7585659 C285.43932529 512.77557921 265.4962201 512.79007325 245.55310822 512.79731464 C240.37687682 512.79922456 235.20064544 512.80114489 230.02441406 512.80310059 C228.73787821 512.80358433 227.45134236 512.80406807 226.12582058 512.80456647 C205.28607287 512.81286626 184.44638258 512.83820189 163.60665995 512.87068126 C142.21307945 512.90375208 120.81952812 512.92176346 99.42592192 512.92495888 C87.41339274 512.92712403 75.40094726 512.93587342 63.38844299 512.96142006 C53.15757366 512.98312738 42.92680837 512.9911773 32.69591862 512.98145328 C27.47723617 512.97690862 22.25876837 512.97880464 17.04011536 512.99821472 C12.25803179 513.01584716 7.47631944 513.01484787 2.69423193 512.99931743 C0.96870747 512.99694149 -0.7568427 513.00126418 -2.48232788 513.01314608 C-18.40888507 513.11598208 -32.07444277 509.97265665 -44.01269531 498.75793457 C-55.99257966 486.00515446 -58.36592503 471.57457961 -58.27062988 454.74523926 C-58.27524527 452.96151598 -58.28160245 451.17779652 -58.28953886 449.39408493 C-58.30616772 444.51877993 -58.29801521 439.64378994 -58.28559399 434.76848412 C-58.27651936 429.5005014 -58.29052518 424.23257169 -58.30151367 418.96459961 C-58.31927773 408.65499479 -58.3154683 398.3455066 -58.30386311 388.03589725 C-58.29482076 379.65526944 -58.29360826 371.27467426 -58.29795837 362.89404297 C-58.29857131 361.70017747 -58.29918424 360.50631196 -58.29981574 359.27626872 C-58.30109468 356.85077189 -58.30239153 354.42527508 -58.30370611 351.99977827 C-58.31510572 329.26870844 -58.30200789 306.5377032 -58.28050464 283.80664396 C-58.26263424 264.31251058 -58.26573853 244.81847248 -58.28417969 225.32434082 C-58.3055973 202.6732743 -58.31400714 180.02226435 -58.30173063 157.37118912 C-58.30045647 154.95473481 -58.29919898 152.5382805 -58.29795837 150.12182617 C-58.29734127 148.93295893 -58.29672417 147.7440917 -58.29608837 146.51919818 C-58.29263815 138.15096854 -58.29845675 129.78277485 -58.30787659 121.41455078 C-58.31910783 111.21313578 -58.31603278 101.01184387 -58.29475361 90.81044292 C-58.28425844 85.60791947 -58.28009532 80.40560105 -58.29335022 75.20307922 C-58.30531156 70.43609745 -58.29864997 65.66950984 -58.27744001 60.90256357 C-58.27298979 59.18267024 -58.27520449 57.46274328 -58.28494316 55.74287176 C-58.36805895 39.83837271 -55.21047516 26.17815183 -44.01269531 14.25793457 C-31.2599152 2.27805022 -16.82934035 -0.09529514 0 0 Z M2.23730469 60.50793457 C2.23730469 189.86793457 2.23730469 319.22793457 2.23730469 452.50793457 C57.01730469 452.50793457 111.79730469 452.50793457 168.23730469 452.50793457 C169.22730469 444.58793457 169.22730469 444.58793457 170.23730469 436.50793457 C173.59437776 428.51020166 178.80046635 422.30925575 186.79980469 418.57043457 C194.4145229 416.14277193 205.05220886 415.92212581 212.40136719 419.33996582 C219.35345229 423.76267528 224.52305888 428.69090665 227.23730469 436.50793457 C227.89730469 441.78793457 228.55730469 447.06793457 229.23730469 452.50793457 C283.68730469 452.50793457 338.13730469 452.50793457 394.23730469 452.50793457 C394.23730469 398.05793457 394.23730469 343.60793457 394.23730469 287.50793457 C339.78730469 287.50793457 285.33730469 287.50793457 229.23730469 287.50793457 C228.90730469 302.35793457 228.57730469 317.20793457 228.23730469 332.50793457 C223.97099787 343.17370161 220.59961588 349.62005193 210.23730469 354.50793457 C203.08786879 356.88046452 191.98103531 356.8884796 185.07324219 353.67590332 C177.56759957 348.90103706 172.3369183 343.3257422 169.70548725 334.78103161 C169.11400032 331.90927324 169.10139764 329.21236533 169.09013367 326.27900696 C169.08297836 324.99914917 169.07582306 323.71929138 169.06845093 322.40065002 C169.06561084 320.98434473 169.06289909 319.56803916 169.06030273 318.1517334 C169.05403535 316.65837446 169.0473883 315.16501707 169.04039001 313.67166138 C169.01937843 308.76944051 169.00898976 303.86721944 168.99902344 298.96496582 C168.99497468 297.27498547 168.99085772 295.58500528 168.98667336 293.89502525 C168.96762739 285.95379367 168.95339559 278.01257134 168.94506139 270.07132131 C168.9352934 260.91595021 168.90898294 251.76082116 168.86856049 242.60553533 C168.8383614 235.52171878 168.82358889 228.43797147 168.82028037 221.35409182 C168.81793406 217.12669195 168.80902845 212.89955083 168.7838192 208.67222023 C168.76046709 204.69207151 168.75633365 200.71235062 168.76658058 196.73215103 C168.76707434 195.27654913 168.76080134 193.82092566 168.74702454 192.36538887 C168.65521963 182.08557573 169.73401467 174.63704709 176.23730469 166.50793457 C176.23730469 165.84793457 176.23730469 165.18793457 176.23730469 164.50793457 C176.75292969 164.26043457 177.26855469 164.01293457 177.79980469 163.75793457 C180.42136946 162.41354238 182.93297673 160.92985936 185.45605469 159.41027832 C192.11994126 156.03449367 201.86228743 156.41574053 208.97558594 158.19152832 C217.41586493 161.7046669 222.38966892 166.86371787 226.29199219 175.04309082 C232.44499937 191.08667566 228.84688237 209.32935249 229.23730469 226.50793457 C283.68730469 226.50793457 338.13730469 226.50793457 394.23730469 226.50793457 C394.23730469 171.72793457 394.23730469 116.94793457 394.23730469 60.50793457 C339.78730469 60.50793457 285.33730469 60.50793457 229.23730469 60.50793457 C228.57730469 65.78793457 227.91730469 71.06793457 227.23730469 76.50793457 C223.88023161 84.50566748 218.67414302 90.70661339 210.67480469 94.44543457 C203.06008648 96.87309721 192.42240051 97.09374333 185.07324219 93.67590332 C178.12115709 89.25319386 172.95155049 84.32496249 170.23730469 76.50793457 C169.24730469 68.58793457 169.24730469 68.58793457 168.23730469 60.50793457 C113.45730469 60.50793457 58.67730469 60.50793457 2.23730469 60.50793457 Z " fill="#283638" transform="translate(57.7626953125,-0.5079345703125)"/>
<path d="M0 0 C7.92 0 15.84 0 24 0 C24 0.66 24 1.32 24 2 C26.31 2 28.62 2 31 2 C31 2.66 31 3.32 31 4 C33.64 4.33 36.28 4.66 39 5 C39 5.66 39 6.32 39 7 C39.53625 7.12375 40.0725 7.2475 40.625 7.375 C43.4638286 8.12206016 46.22223202 9.05303364 49 10 C49 10.66 49 11.32 49 12 C49.66 12 50.32 12 51 12 C51.680625 12.9590625 51.680625 12.9590625 52.375 13.9375 C54.21084873 16.2676157 55.12909413 16.60401298 58 17 C58.09539062 17.60199219 58.19078125 18.20398438 58.2890625 18.82421875 C59.15725657 21.48127423 60.14512448 22.18008058 62.375 23.8125 C66.15729353 26.84452262 67.32732254 29.51018155 69 34 C69.66 34.33 70.32 34.66 71 35 C71.59765625 37.03125 71.59765625 37.03125 72.0625 39.5 C72.45864843 42.53773221 72.45864843 42.53773221 74 45 C74.04063832 46.66617115 74.042721 48.33388095 74 50 C74.66 50 75.32 50 76 50 C76 58.91 76 67.82 76 77 C75.34 77 74.68 77 74 77 C74.03867188 77.72058594 74.07734375 78.44117188 74.1171875 79.18359375 C73.99016226 82.23643371 73.3116206 84.26051633 72.125 87.0625 C71.77695313 87.89910156 71.42890625 88.73570312 71.0703125 89.59765625 C70 92 70 92 68.8671875 94.05859375 C67.72810513 96.25432136 67.72810513 96.25432136 68 100 C67.34 100 66.68 100 66 100 C66 100.99 66 101.98 66 103 C65.34 103 64.68 103 64 103 C63.67 105.31 63.34 107.62 63 110 C62.34 110 61.68 110 61 110 C61 110.99 61 111.98 61 113 C60.34 113 59.68 113 59 113 C58.67 115.31 58.34 117.62 58 120 C57.34 120 56.68 120 56 120 C56 120.99 56 121.98 56 123 C55.34 123 54.68 123 54 123 C53.896875 124.11375 53.79375 125.2275 53.6875 126.375 C53.460625 127.57125 53.23375 128.7675 53 130 C52.01 130.66 51.02 131.32 50 132 C48.78715124 135.05429073 48.78715124 135.05429073 48 138 C47.34 138 46.68 138 46 138 C45.87625 138.5775 45.7525 139.155 45.625 139.75 C44.99351176 142.02335767 44.11141809 143.9253529 43 146 C42.34 146 41.68 146 41 146 C41 147.32 41 148.64 41 150 C39.5 151.625 39.5 151.625 38 153 C38 153.66 38 154.32 38 155 C36.68 155.33 35.36 155.66 34 156 C33.67 158.31 33.34 160.62 33 163 C32.34 163 31.68 163 31 163 C31 163.66 31 164.32 31 165 C30.34 165 29.68 165 29 165 C29 165.99 29 166.98 29 168 C28.34 168 27.68 168 27 168 C26.67 169.65 26.34 171.3 26 173 C25.34 173 24.68 173 24 173 C23.67 174.65 23.34 176.3 23 178 C22.34 178 21.68 178 21 178 C21 178.66 21 179.32 21 180 C20.34 180 19.68 180 19 180 C19 180.99 19 181.98 19 183 C18.34 183 17.68 183 17 183 C16.67 184.65 16.34 186.3 16 188 C15.34 188 14.68 188 14 188 C14 188.66 14 189.32 14 190 C12.68 190 11.36 190 10 190 C10 189.34 10 188.68 10 188 C9.34 188 8.68 188 8 188 C8 187.01 8 186.02 8 185 C7.34 185 6.68 185 6 185 C3.70351351 182.4385343 3 181.52032428 3 178 C2.34 178 1.68 178 1 178 C0.505 175.525 0.505 175.525 0 173 C-0.66 173 -1.32 173 -2 173 C-2 172.01 -2 171.02 -2 170 C-2.66 170 -3.32 170 -4 170 C-4 169.34 -4 168.68 -4 168 C-4.66 168 -5.32 168 -6 168 C-6.495 165.525 -6.495 165.525 -7 163 C-7.66 163 -8.32 163 -9 163 C-9 162.01 -9 161.02 -9 160 C-9.66 160 -10.32 160 -11 160 C-11.12375 159.360625 -11.2475 158.72125 -11.375 158.0625 C-11.58125 157.381875 -11.7875 156.70125 -12 156 C-12.66 155.67 -13.32 155.34 -14 155 C-14.33333333 153.66666667 -14.66666667 152.33333333 -15 151 C-15.66 150.67 -16.32 150.34 -17 150 C-17 148.68 -17 147.36 -17 146 C-17.66 146 -18.32 146 -19 146 C-19 145.01 -19 144.02 -19 143 C-19.66 143 -20.32 143 -21 143 C-21.33 141.35 -21.66 139.7 -22 138 C-22.66 138 -23.32 138 -24 138 C-24 137.01 -24 136.02 -24 135 C-24.66 135 -25.32 135 -26 135 C-26.12375 134.360625 -26.2475 133.72125 -26.375 133.0625 C-26.58125 132.381875 -26.7875 131.70125 -27 131 C-27.66 130.67 -28.32 130.34 -29 130 C-29 128.68 -29 127.36 -29 126 C-29.66 126 -30.32 126 -31 126 C-31.33 124.02 -31.66 122.04 -32 120 C-32.66 120 -33.32 120 -34 120 C-36.29633824 116.55549263 -36.54016485 114.06187717 -37 110 C-37.66 110 -38.32 110 -39 110 C-40.0625 107.625 -40.0625 107.625 -41 105 C-40.505 104.01 -40.505 104.01 -40 103 C-40.66 103 -41.32 103 -42 103 C-42 102.01 -42 101.02 -42 100 C-42.66 100 -43.32 100 -44 100 C-44 98.35 -44 96.7 -44 95 C-44.66 95 -45.32 95 -46 95 C-46.12375 94.443125 -46.2475 93.88625 -46.375 93.3125 C-46.96196182 90.93038319 -46.96196182 90.93038319 -48.0625 88.5 C-49 86 -49 86 -49 82 C-49.66 82 -50.32 82 -51 82 C-51.89906719 78.155528 -52.12876291 74.58492842 -52.1328125 70.640625 C-52.13410156 69.44308594 -52.13539062 68.24554688 -52.13671875 67.01171875 C-52.13285156 65.77035156 -52.12898438 64.52898437 -52.125 63.25 C-52.12886719 61.99316406 -52.13273437 60.73632812 -52.13671875 59.44140625 C-52.13542969 58.24902344 -52.13414063 57.05664062 -52.1328125 55.828125 C-52.13168457 54.7340332 -52.13055664 53.63994141 -52.12939453 52.51269531 C-52 50 -52 50 -51 49 C-50.95936168 47.33382885 -50.957279 45.66611905 -51 44 C-50.34 44 -49.68 44 -49 44 C-49 42.68 -49 41.36 -49 40 C-48.34 40 -47.68 40 -47 40 C-47 38.35 -47 36.7 -47 35 C-46.01 34.505 -46.01 34.505 -45 34 C-44.34786708 31.97536745 -44.34786708 31.97536745 -44 30 C-43.34 30 -42.68 30 -42 30 C-42 29.01 -42 28.02 -42 27 C-41.34 27 -40.68 27 -40 27 C-39.67 26.01 -39.34 25.02 -39 24 C-38.34 24 -37.68 24 -37 24 C-36.67 22.35 -36.34 20.7 -36 19 C-34.68 19 -33.36 19 -32 19 C-32 18.34 -32 17.68 -32 17 C-31.34 17 -30.68 17 -30 17 C-29.67 16.01 -29.34 15.02 -29 14 C-28.34 14 -27.68 14 -27 14 C-27 13.34 -27 12.68 -27 12 C-26.34 12 -25.68 12 -25 12 C-25 11.34 -25 10.68 -25 10 C-23.02 9.67 -21.04 9.34 -19 9 C-19 8.34 -19 7.68 -19 7 C-17.68 7 -16.36 7 -15 7 C-15 6.34 -15 5.68 -15 5 C-12.36 4.67 -9.72 4.34 -7 4 C-7 3.34 -7 2.68 -7 2 C-4.69 2 -2.38 2 0 2 C0 1.34 0 0.68 0 0 Z M-2.875 53.0625 C-6.71586089 58.37192535 -6.63160517 63.64836493 -6 70 C-4.2418744 75.40498041 -0.4739175 78.76354904 4 82 C9.08748695 83.69582898 14.95241374 83.99131523 20.1015625 82.31640625 C25.21828198 79.60026221 29.16406448 75.50780657 31 70 C31.69817396 62.81224181 31.41658878 57.81130102 27 52 C22.62311171 47.6116838 18.94542149 45.85190364 12.75 45.6875 C5.80217369 45.76999398 1.75231265 47.7910444 -2.875 53.0625 Z " fill="#FF5C00" transform="translate(131,246)"/>
<path d="M0 0 C2 1 2 1 2 1 Z " fill="#FF5D00" transform="translate(145,436)"/>
<path d="M0 0 C2 1 2 1 2 1 Z " fill="#FF5D00" transform="translate(155,421)"/>
<path d="M0 0 C2 1 2 1 2 1 Z " fill="#FF5D00" transform="translate(165,406)"/>
<path d="" fill="#FF5D00" transform="translate(0,0)"/>
<path d="" fill="#FF5D00" transform="translate(0,0)"/>
<path d="" fill="#FF5D00" transform="translate(0,0)"/>
<path d="" fill="#FF5D00" transform="translate(0,0)"/>
<path d="" fill="#FF5D00" transform="translate(0,0)"/>
<path d="" fill="#FF5D00" transform="translate(0,0)"/>
<path d="" fill="#FF5D00" transform="translate(0,0)"/>
<path d="" fill="#FF5D00" transform="translate(0,0)"/>
<path d="" fill="#FF5D00" transform="translate(0,0)"/>
<path d="" fill="#FF5D00" transform="translate(0,0)"/>
<path d="" fill="#FF5D00" transform="translate(0,0)"/>
<path d="" fill="#FF5D00" transform="translate(0,0)"/>
<path d="" fill="#FF5D00" transform="translate(0,0)"/>
<path d="" fill="#FF5D00" transform="translate(0,0)"/>
<path d="" fill="#FF5D00" transform="translate(0,0)"/>
<path d="" fill="#FF5D00" transform="translate(0,0)"/>
<path d="" fill="#FF5D00" transform="translate(0,0)"/>
<path d="" fill="#FF5D00" transform="translate(0,0)"/>
<path d="" fill="#FF5D00" transform="translate(0,0)"/>
<path d="" fill="#FF5D00" transform="translate(0,0)"/>
<path d="" fill="#FF5D00" transform="translate(0,0)"/>
<path d="" fill="#FF5D00" transform="translate(0,0)"/>
<path d="" fill="#FF5D00" transform="translate(0,0)"/>
<path d="" fill="#FF5D00" transform="translate(0,0)"/>
<path d="" fill="#FF5D00" transform="translate(0,0)"/>
<path d="" fill="#FF5D00" transform="translate(0,0)"/>
<path d="" fill="#FF5D00" transform="translate(0,0)"/>
<path d="" fill="#FF5D00" transform="translate(0,0)"/>
<path d="" fill="#FF5D00" transform="translate(0,0)"/>
<path d="" fill="#FF5D00" transform="translate(0,0)"/>
<path d="" fill="#FF5D00" transform="translate(0,0)"/>
<path d="" fill="#FF5D00" transform="translate(0,0)"/>
<path d="" fill="#FF5D00" transform="translate(0,0)"/>
<path d="" fill="#FF5D00" transform="translate(0,0)"/>
<path d="" fill="#FF5D00" transform="translate(0,0)"/>
<path d="" fill="#FF5D00" transform="translate(0,0)"/>
<path d="" fill="#FF5D00" transform="translate(0,0)"/>
<path d="" fill="#FF5D00" transform="translate(0,0)"/>
<path d="" fill="#FF5D00" transform="translate(0,0)"/>
<path d="" fill="#FF5D00" transform="translate(0,0)"/>
<path d="" fill="#FF5D00" transform="translate(0,0)"/>
<path d="" fill="#FF5D00" transform="translate(0,0)"/>
<path d="" fill="#FF5D00" transform="translate(0,0)"/>
<path d="" fill="#FF5D00" transform="translate(0,0)"/>
<path d="" fill="#FF5D00" transform="translate(0,0)"/>
<path d="" fill="#FF5D00" transform="translate(0,0)"/>
<path d="" fill="#FF5D00" transform="translate(0,0)"/>
<path d="" fill="#FF5D00" transform="translate(0,0)"/>
<path d="" fill="#FF5D00" transform="translate(0,0)"/>
<path d="" fill="#FF5D00" transform="translate(0,0)"/>
<path d="" fill="#FF5D00" transform="translate(0,0)"/>
<path d="" fill="#FF5D00" transform="translate(0,0)"/>
<path d="" fill="#FF5D00" transform="translate(0,0)"/>
<path d="" fill="#FF5D00" transform="translate(0,0)"/>
<path d="" fill="#FF5D00" transform="translate(0,0)"/>
<path d="" fill="#FF5D00" transform="translate(0,0)"/>
<path d="" fill="#FF5D00" transform="translate(0,0)"/>
<path d="" fill="#FF5D00" transform="translate(0,0)"/>
<path d="" fill="#FF5D00" transform="translate(0,0)"/>
<path d="" fill="#FF5D00" transform="translate(0,0)"/>
<path d="" fill="#FF5D00" transform="translate(0,0)"/>
<path d="" fill="#FF5D00" transform="translate(0,0)"/>
<path d="" fill="#FF5D00" transform="translate(0,0)"/>
<path d="" fill="#FF5D00" transform="translate(0,0)"/>
<path d="" fill="#FF5D00" transform="translate(0,0)"/>
<path d="" fill="#FF5D00" transform="translate(0,0)"/>
<path d="" fill="#FF5D00" transform="translate(0,0)"/>
<path d="" fill="#FF5D00" transform="translate(0,0)"/>
<path d="" fill="#FF5D00" transform="translate(0,0)"/>
<path d="" fill="#FF5D00" transform="translate(0,0)"/>
<path d="" fill="#FF5D00" transform="translate(0,0)"/>
<path d="" fill="#FF5D00" transform="translate(0,0)"/>
<path d="" fill="#FF5D00" transform="translate(0,0)"/>
<path d="" fill="#FF5D00" transform="translate(0,0)"/>
<path d="" fill="#FF5D00" transform="translate(0,0)"/>
<path d="" fill="#FF5D00" transform="translate(0,0)"/>
<path d="" fill="#FF5D00" transform="translate(0,0)"/>
<path d="" fill="#FF5D00" transform="translate(0,0)"/>
<path d="" fill="#FF5D00" transform="translate(0,0)"/>
<path d="" fill="#FF5D00" transform="translate(0,0)"/>
<path d="" fill="#FF5D00" transform="translate(0,0)"/>
<path d="" fill="#FF5D00" transform="translate(0,0)"/>
<path d="" fill="#FF5D00" transform="translate(0,0)"/>
<path d="" fill="#FF5D00" transform="translate(0,0)"/>
<path d="" fill="#FF5D00" transform="translate(0,0)"/>
<path d="" fill="#FF5D00" transform="translate(0,0)"/>
<path d="" fill="#FF5D00" transform="translate(0,0)"/>
<path d="" fill="#FF5D00" transform="translate(0,0)"/>
<path d="" fill="#FF5D00" transform="translate(0,0)"/>
<path d="" fill="#FF5D00" transform="translate(0,0)"/>
<path d="" fill="#FF5D00" transform="translate(0,0)"/>
<path d="" fill="#FF5D00" transform="translate(0,0)"/>
<path d="" fill="#FF5D00" transform="translate(0,0)"/>
<path d="" fill="#FF5D00" transform="translate(0,0)"/>
<path d="" fill="#FF5D00" transform="translate(0,0)"/>
<path d="" fill="#FF5D00" transform="translate(0,0)"/>
<path d="" fill="#FF5D00" transform="translate(0,0)"/>
<path d="" fill="#FF5D00" transform="translate(0,0)"/>
<path d="" fill="#FF5D00" transform="translate(0,0)"/>
<path d="" fill="#FF5D00" transform="translate(0,0)"/>
<path d="" fill="#FF5D00" transform="translate(0,0)"/>
<path d="" fill="#FF5D00" transform="translate(0,0)"/>
<path d="" fill="#FF5D00" transform="translate(0,0)"/>
<path d="" fill="#FF5D00" transform="translate(0,0)"/>
<path d="" fill="#FF5D00" transform="translate(0,0)"/>
<path d="" fill="#FF5D00" transform="translate(0,0)"/>
<path d="" fill="#FF5D00" transform="translate(0,0)"/>
<path d="" fill="#FF5D00" transform="translate(0,0)"/>
<path d="" fill="#FF5D00" transform="translate(0,0)"/>
<path d="" fill="#FF5D00" transform="translate(0,0)"/>
<path d="" fill="#FF5D00" transform="translate(0,0)"/>
</svg>
