<?xml version="1.0" encoding="UTF-8"?>
<svg version="1.1" xmlns="http://www.w3.org/2000/svg" width="125" height="128">
<path d="M0 0 C41.25 0 82.5 0 125 0 C125 42.24 125 84.48 125 128 C83.75 128 42.5 128 0 128 C0 85.76 0 43.52 0 0 Z " fill="#F5F5F5" transform="translate(0,0)"/>
<path d="M0 0 C41.25 0 82.5 0 125 0 C125 42.24 125 84.48 125 128 C83.75 128 42.5 128 0 128 C0 85.76 0 43.52 0 0 Z M10 15 C10 46.68 10 78.36 10 111 C44.32 111 78.64 111 114 111 C114 79.32 114 47.64 114 15 C79.68 15 45.36 15 10 15 Z " fill="#FEFEFE" transform="translate(0,0)"/>
<path d="M0 0 C34.32 0 68.64 0 104 0 C104 31.68 104 63.36 104 96 C69.68 96 35.36 96 0 96 C0 64.32 0 32.64 0 0 Z M6 6 C6 33.72 6 61.44 6 90 C36.36 90 66.72 90 98 90 C98 62.28 98 34.56 98 6 C67.64 6 37.28 6 6 6 Z " fill="#F8F8F8" transform="translate(10,15)"/>
<path d="M0 0 C34.32 0 68.64 0 104 0 C104 31.68 104 63.36 104 96 C69.68 96 35.36 96 0 96 C0 64.32 0 32.64 0 0 Z M2 2 C2 32.36 2 62.72 2 94 C35 94 68 94 102 94 C102 63.64 102 33.28 102 2 C69 2 36 2 2 2 Z " fill="#D8D8D8" transform="translate(10,15)"/>
<path d="M0 0 C30.36 0 60.72 0 92 0 C92 27.72 92 55.44 92 84 C61.64 84 31.28 84 0 84 C0 56.28 0 28.56 0 0 Z M2 2 C2 28.4 2 54.8 2 82 C31.04 82 60.08 82 90 82 C90 55.6 90 29.2 90 2 C60.96 2 31.92 2 2 2 Z " fill="#D8D8D8" transform="translate(16,21)"/>
</svg>
